<?xml version="1.0" encoding="utf-8"?>
<!-- Generator: Adobe Illustrator 19.1.0, SVG Export Plug-In . SVG Version: 6.00 Build 0)  -->
<svg version="1.1" id="Layer_1" xmlns="http://www.w3.org/2000/svg" xmlns:xlink="http://www.w3.org/1999/xlink" x="0px" y="0px"
	 viewBox="0 0 26 40" style="enable-background:new 0 0 26 40;" xml:space="preserve">
<style type="text/css">
	.st0{fill:#A51417;}
</style>
<g id="_x38_hdWmf.tif_3_">
	<g>
		<path class="st0" d="M11.6,1.4c2.8-0.3,5.7,0.3,8.3,1.9c2.5,1.5,4.3,3.9,5.2,6.6c1.1,3.1,0.8,6-0.2,9c-0.9,2.9-2.2,5.6-3.7,8.2
			c-2.4,4.2-5.2,8-8,11.9c-0.2-0.3-0.4-0.4-0.5-0.5c-3.4-4.8-7-9.5-9.5-14.9c-0.9-1.8-1.6-3.8-2.2-5.7c-0.5-1.5-0.8-3.1-0.7-4.7
			c0.1-1.3,0.5-2.6,0.9-3.9c0.8-2.1,2.1-4,3.9-5.3C7,2.5,9.3,1.6,11.6,1.4z M13.1,7.8c-3.5,0-6.3,2.7-6.3,6.2c0,3.5,2.7,6.3,6.2,6.3
			c3.4,0.1,6.3-2.7,6.3-6.1C19.3,10.6,16.6,7.8,13.1,7.8z"/>
	</g>
</g>
</svg>
